<svg width="172" height="37" viewBox="0 0 172 37" fill="none" xmlns="http://www.w3.org/2000/svg">
<g clip-path="url(#clip0_1_1974)">
<path d="M0 0V37H36.973V0H0ZM8.6909 31.4928C7.71256 30.5301 7.10926 29.6816 6.52225 28.4333C5.43793 27.9275 4.65526 27.4706 3.67692 26.875C4.36991 26.5649 4.96507 26.361 5.81296 26.1244C5.55207 24.6395 5.62544 23.3096 5.82926 21.4412C6.21245 23.2035 6.54671 24.46 7.29677 25.7735C8.21804 25.6022 9.00071 25.4798 10.0687 25.3167C9.48988 26.1815 9.13116 26.8505 8.82135 27.7072C9.86491 28.6781 10.8025 29.2492 12.1151 29.7305C10.7373 29.6897 9.70185 29.5021 8.48708 29.1513C8.38925 30.0161 8.45447 30.6688 8.68275 31.4928H8.6909ZM12.4086 19.9808C11.8705 18.6836 11.096 16.0891 11.096 16.0891C9.60402 16.8886 6.17168 20.1114 6.17168 20.1114C8.05498 16.3338 9.9709 14.6123 9.9709 14.6123C9.31052 13.9433 7.58212 13.6088 6.32659 13.5599C6.97881 13.2906 8.66644 12.9806 9.95459 12.9153C11.2509 12.8827 12.0336 12.9561 12.0336 12.9561C13.1913 12.0423 14.936 11.2754 15.5393 11.1857C15.1316 11.716 14.6588 12.7032 14.5283 13.1682C17.9117 13.6251 20.6185 15.363 20.6185 15.363C17.6672 14.8408 16.11 14.9061 15.0012 15.004C13.9087 15.11 13.6804 15.2406 13.6804 15.2406C12.8815 16.9865 12.4086 19.989 12.4086 19.989V19.9808ZM19.6075 30.7341C19.1999 30.8157 18.6536 30.8565 18.0585 30.832C16.9252 31.501 15.4088 31.9905 14.2511 32.2679C14.9441 31.8273 15.5393 31.3705 16.2486 30.7259C15.5393 30.5791 14.8789 30.3669 14.2022 30.0161C15.311 30.0161 16.216 29.8937 17.3573 29.5755C18.0177 28.8331 18.5314 28.1967 19.1265 27.389C19.151 27.9601 19.1836 28.3843 19.2243 28.882C20.3168 28.368 21.1321 27.8785 22.0697 27.2176C21.181 28.1151 20.4065 28.8657 19.3466 29.6897C19.4363 30.1385 19.5015 30.3914 19.5994 30.7341H19.6075ZM31.2171 8.21588C31.5922 9.22756 30.6872 14.8082 29.9453 16.2849C29.9208 13.9515 29.717 11.0062 28.8447 9.72525C26.5619 11.0714 25.8607 11.1857 23.3823 12.6706C24.8253 11.1041 25.3308 10.4351 26.2276 9.1215C23.9367 9.24388 20.6185 9.52128 18.246 10.0434C20.3087 8.94201 24.4095 7.71003 26.57 7.41632C26.0646 6.72282 22.0126 4.52811 21.0017 4.10386C24.2139 4.35678 28.1435 5.55612 30.0431 6.72282C30.7932 6.48622 31.5677 6.47806 32.9618 6.35568C32.6031 6.96759 32.595 7.31841 31.2253 8.22404L31.2171 8.21588Z" fill="#008859"/>
<path d="M46.226 5.10739C46.3238 6.39647 46.389 9.62734 46.389 10.8185C46.389 11.8955 46.3809 15.5343 46.2097 17.1089L46.1934 17.2395H51.8677C54.6397 17.2395 57.5992 16.3583 57.5992 13.8781C57.5992 12.3197 56.4741 11.1693 54.3788 10.5411C55.9197 10.125 56.9632 9.05623 56.9632 7.82426C56.9632 5.80904 54.6397 5.03396 52.471 4.99316H46.2097V5.11555L46.226 5.10739ZM50.6203 6.35568C52.9928 6.35568 53.8733 6.85336 53.8733 8.15061C53.8733 8.49327 53.7673 8.80331 53.5554 9.05623C53.107 9.60287 52.202 9.88026 51.0769 9.82315H51.0198L50.3676 11.5447H51.028C52.3324 11.5039 53.4657 11.9118 54.0445 12.6298C54.3136 12.9561 54.4522 13.3314 54.4522 13.7394C54.4522 15.1019 53.2619 15.7954 50.9301 15.7954C50.5388 15.7954 49.9029 15.7954 49.4952 15.7709C49.4137 13.976 49.4056 11.5365 49.4056 10.8185C49.4056 9.96185 49.4382 8.06086 49.5034 6.43727C49.7643 6.38831 50.2127 6.35568 50.6203 6.36384V6.35568Z" fill="#231F20"/>
<path d="M70.6845 4.98486H67.937L68.0512 8.06072C68.1001 9.59457 68.149 11.161 68.255 12.6786C68.0675 12.2135 67.9126 11.9606 67.0891 10.745C67.0647 10.7042 64.203 6.26579 63.2084 5.0175L63.1839 4.98486H59.9717V5.09909C60.0696 6.38817 60.1429 9.61088 60.1429 10.8021C60.1429 11.8872 60.1266 15.526 59.9636 17.1006L59.9473 17.2312H62.7926V17.1088C62.6214 14.1145 62.6214 11.0958 62.6214 8.1831C62.7192 8.52577 62.8578 8.84396 63.3062 9.51298C63.3551 9.58641 68.2468 16.758 68.4996 17.1822L68.524 17.2312H70.815L70.7987 17.1006C70.6275 15.526 70.6193 11.8872 70.6193 10.8021C70.6193 9.61088 70.6845 6.38001 70.7824 5.09909V4.98486H70.6927H70.6845Z" fill="#231F20"/>
<path d="M74.0026 5.09923C74.1005 6.39647 74.1657 9.61918 74.1657 10.8104C74.1657 11.8955 74.1494 15.5343 73.9863 17.1008V17.2232H77.3697L77.3534 17.1008C77.2393 15.983 77.1904 13.8291 77.1822 12.1729C77.3208 12.1729 77.8018 12.2055 77.8018 12.2055L78.2829 12.23C82.7588 12.23 84.9356 11.0307 84.9356 8.54223C84.9356 5.70298 81.8864 5.04212 79.3264 4.99316H73.9945V5.10739L74.0026 5.09923ZM78.1687 6.45358C79.7585 6.42911 80.8755 6.75546 81.4135 7.41632C81.6581 7.71819 81.7804 8.0935 81.7804 8.53407C81.7804 10.3045 79.7993 10.6798 78.1443 10.6798L77.4676 10.6553C77.4676 10.6553 77.3045 10.6309 77.1985 10.6146C77.1904 10.2066 77.1822 9.6763 77.1822 9.06439C77.1822 8.28115 77.1904 7.38368 77.223 6.53517C77.435 6.49438 77.8018 6.46174 78.1687 6.45358Z" fill="#231F20"/>
<path d="M91.4255 5.09923C91.5233 6.39647 91.5885 9.61918 91.5885 10.8104C91.5885 11.8955 91.5722 15.5343 91.4092 17.1008V17.2232H94.8007L94.7844 17.1008C94.6703 15.983 94.6295 13.8291 94.6132 12.1729C94.7518 12.1729 95.2328 12.2055 95.2328 12.2055L95.7139 12.23C100.19 12.23 102.367 11.0307 102.367 8.54223C102.367 5.70298 99.3174 5.04212 96.7574 4.99316H91.4255V5.10739V5.09923ZM95.5916 6.45358C97.1814 6.42911 98.3065 6.75546 98.8445 7.41632C99.081 7.71819 99.2114 8.0935 99.2114 8.53407C99.2114 10.3045 97.2384 10.6798 95.5671 10.6798L94.8904 10.6553C94.8904 10.6553 94.7274 10.6309 94.6214 10.6146C94.6051 10.2066 94.5969 9.6763 94.5969 9.05623C94.5969 8.27299 94.6132 7.38368 94.6377 6.53517C94.8497 6.49438 95.2165 6.46174 95.5834 6.45358H95.5916Z" fill="#231F20"/>
<path d="M106.916 4.99316H106.859L106.834 5.05843C106.198 6.79625 102.138 15.7056 101.502 17.0681L101.421 17.2395H104.331L104.348 17.1742C104.6 16.342 104.927 15.3874 105.31 14.3676C105.416 14.3676 107.715 14.335 107.715 14.335L109.704 14.3594C109.704 14.3594 110.055 14.3757 110.136 14.3757C110.658 15.6975 111.049 16.6928 111.221 17.1905L111.245 17.2558H114.62L109.182 5.00948H106.9L106.916 4.99316ZM107.739 8.59934C108.008 9.17045 108.71 10.8185 109.492 12.744C109.37 12.744 109.231 12.744 109.231 12.744L107.739 12.7603C107.739 12.7603 106.19 12.7358 105.954 12.7277C106.59 11.1775 107.209 9.7742 107.739 8.58302V8.59934Z" fill="#231F20"/>
<path d="M115.981 5.10735C116.071 6.39643 116.144 9.6273 116.144 10.8103C116.144 11.8954 116.128 15.5342 115.957 17.1007L115.94 17.2313H119.34L119.324 17.1007C119.153 15.5261 119.144 11.8873 119.144 10.8022C119.144 9.95365 119.177 8.0445 119.242 6.52697C119.52 6.48618 119.903 6.4617 120.155 6.45354C121.745 6.42091 122.87 6.75542 123.4 7.41628C123.645 7.71815 123.767 8.09346 123.767 8.52587C123.767 9.93734 122.438 10.6471 121.207 10.7206C120.8 10.7369 120.49 10.6798 120.49 10.6798L120.253 10.639L120.4 10.8593C121.59 12.6297 123.4 15.7056 124.167 17.1742L124.191 17.2231H127.835L127.729 17.0436C127.607 16.8397 125.218 13.3395 124.207 11.8383C124.207 11.8383 124.175 11.7894 124.142 11.7486C125.993 11.1856 126.906 10.1331 126.906 8.52587C126.906 5.68662 123.849 5.03392 121.297 4.97681H115.965L115.973 5.09103L115.981 5.10735Z" fill="#231F20"/>
<path d="M132.67 4.97681H129.409L129.425 5.09103C129.515 6.38827 129.589 9.61914 129.589 10.8022C129.589 11.8791 129.572 15.5179 129.409 17.0926V17.215H132.793L132.776 17.0926C132.613 15.5179 132.597 11.8791 132.597 10.8022C132.597 9.61099 132.67 6.38827 132.76 5.09103V4.97681H132.678H132.67Z" fill="#231F20"/>
<path d="M135.85 5.10739C135.948 6.39647 136.013 9.62734 136.013 10.8185C136.013 11.8955 136.005 15.5343 135.834 17.1089L135.817 17.2395H141.492C144.264 17.2395 147.223 16.3583 147.223 13.8781C147.223 12.3197 146.098 11.1693 143.995 10.5411C145.536 10.125 146.587 9.05623 146.587 7.82426C146.587 5.80904 144.272 5.03396 142.095 4.99316H135.834V5.10739H135.85ZM140.236 6.35568C142.601 6.35568 143.489 6.85336 143.489 8.15061C143.489 8.49327 143.375 8.80331 143.171 9.05623C142.723 9.60287 141.818 9.88026 140.693 9.82315H140.636L139.983 11.5447H140.644C141.956 11.5039 143.073 11.9118 143.66 12.6298C143.929 12.9561 144.068 13.3314 144.068 13.7394C144.068 15.1019 142.886 15.7954 140.554 15.7954C140.155 15.7954 139.519 15.7954 139.111 15.7709C139.03 13.976 139.021 11.5365 139.021 10.8185C139.021 9.96185 139.054 8.0527 139.119 6.43727C139.372 6.38831 139.82 6.35568 140.236 6.36384V6.35568Z" fill="#231F20"/>
<path d="M155.58 4.97666H153.297L153.273 5.04193C152.604 6.89397 148.3 16.2847 147.941 17.0516L147.859 17.2148H150.778L150.794 17.1414C151.047 16.3092 151.373 15.3628 151.756 14.3348C151.854 14.3348 154.161 14.3021 154.161 14.3021L156.151 14.3348C156.151 14.3348 156.493 14.3348 156.583 14.3348C157.113 15.6565 157.496 16.6519 157.667 17.1495L157.692 17.2148H161.067L155.629 4.96851H155.572L155.58 4.97666ZM154.178 8.58284C154.447 9.15395 155.14 10.7939 155.931 12.7275C155.808 12.7275 155.67 12.7438 155.67 12.7438L154.17 12.7683C154.17 12.7683 152.629 12.7357 152.384 12.7357C153.012 11.1773 153.64 9.78218 154.17 8.591L154.178 8.58284Z" fill="#231F20"/>
<path d="M162.021 8.15866C162.021 10.3126 164.181 11.1774 166.089 11.9606C167.573 12.5562 169.097 13.1845 169.097 14.2043C169.097 14.5225 169.024 14.7673 168.861 14.9549C168.51 15.3792 167.785 15.5587 166.635 15.5016C165.518 15.4444 164.23 15.0773 162.811 14.4246L162.216 14.1472V14.6204V16.8233L162.599 16.9049L162.836 16.9538C163.553 17.1251 164.907 17.4515 166.276 17.4515C169.855 17.4515 172 16.0237 172 13.6495C172 11.4466 169.79 10.5573 167.842 9.78226C166.399 9.20299 164.915 8.61556 164.915 7.66914C164.915 7.39174 164.915 6.57586 166.757 6.57586C168.135 6.57586 169.488 7.13882 170.214 7.44069L170.915 7.72625V7.2612V5.03386L170.222 4.91148C169.529 4.78094 168.38 4.55249 167.181 4.55249C164.099 4.55249 162.029 5.99659 162.029 8.15051L162.021 8.15866Z" fill="#231F20"/>
<path d="M54.7376 23.6358C54.1506 23.285 53.4169 22.9995 52.4793 22.9995C49.7237 22.9995 48.7698 25.1779 48.7698 27.0462C48.7698 29.6325 50.3596 30.9379 52.4956 30.9379C53.8245 30.9379 54.8273 30.3179 55.716 29.5265L55.7323 31.7701C54.8273 32.1373 53.7022 32.4555 52.0227 32.4555C48.1746 32.4555 45.7695 30.065 45.7695 27.0136C45.7695 23.799 48.3132 21.4819 52.5038 21.4819C53.4903 21.4819 54.4441 21.637 55.3654 21.8572L54.7295 23.6277L54.7376 23.6358Z" fill="#231F20"/>
<path d="M64.0237 21.6614C64.4313 22.7547 67.9126 30.5055 68.7279 32.2678H65.8091C65.6461 31.7864 65.2955 30.9053 64.839 29.7712C64.2356 29.7549 63.616 29.7386 62.7518 29.7386C61.9529 29.7386 61.3414 29.7549 60.6484 29.7712C60.3141 30.6687 60.0451 31.4845 59.8005 32.2678H57.2568C57.8601 30.9542 61.4229 23.2279 61.9773 21.6614H64.0237ZM64.2846 28.376L62.7681 24.7862C62.2871 25.8142 61.7572 27.0298 61.1946 28.376C61.6512 28.3924 62.2708 28.4087 62.7681 28.4087C63.2655 28.4087 63.7709 28.3924 64.2846 28.376Z" fill="#231F20"/>
<path d="M75.2008 21.6614C77.4265 21.6614 80.0762 22.2814 80.0762 24.7372C80.0762 26.1161 79.2772 27.038 77.6874 27.5275C77.9157 27.9844 80.4757 31.8762 80.8996 32.2678H77.7363C77.0434 30.9542 75.4617 28.2863 74.3122 26.5566C74.5078 26.6056 74.7932 26.6382 75.1274 26.6382C76.0487 26.6382 77.3532 25.9692 77.3532 24.7454C77.3532 23.2197 75.5106 22.9423 74.5812 22.9423C74.1083 22.9423 73.6599 22.9749 73.4317 23.0076C73.3664 24.3293 73.342 25.9774 73.342 26.7198C73.342 27.6581 73.342 30.791 73.505 32.2759H70.5537C70.7086 30.8074 70.7331 28.9145 70.7331 26.7198C70.7331 24.8678 70.7168 22.6649 70.5782 21.6777H75.1927L75.2008 21.6614Z" fill="#231F20"/>
<path d="M86.9661 21.6614C91.4338 21.6614 93.1459 24.0111 93.1459 26.9483C93.1459 29.8854 91.4828 32.2678 86.803 32.2678H82.8652C83.0201 30.8481 83.0201 28.89 83.0201 26.728C83.0201 25.7 83.0201 23.0484 82.8652 21.6695H86.9661V21.6614ZM85.7269 22.9913C85.6698 23.6848 85.6535 25.4878 85.6535 26.7198C85.6535 28.2618 85.6535 29.4775 85.7106 30.9134C85.8655 30.9297 86.1019 30.9542 86.4688 30.9542C89.0288 30.9542 90.3577 30.1547 90.3577 26.8911C90.3577 23.6276 88.9962 22.9097 86.4036 22.9668L85.7187 22.9831L85.7269 22.9913Z" fill="#231F20"/>
<path d="M98.5835 21.6614C98.4938 22.8852 98.4286 25.6755 98.4286 26.7198C98.4286 27.6418 98.4449 30.7992 98.5835 32.2596H95.6484C95.8033 30.791 95.8115 27.6418 95.8115 26.7198C95.8115 25.6918 95.7544 22.8852 95.6729 21.6614H98.5835Z" fill="#231F20"/>
<path d="M109.818 21.6615V23.1953C108.987 23.1464 106.908 23.0893 106.215 23.0893C105.701 23.0893 105.122 23.0893 104.535 23.1301C104.495 23.7828 104.478 24.5986 104.478 25.3084C104.478 25.6593 104.478 25.9775 104.495 26.2304L108.188 26.1733V27.8213L104.495 27.6663C104.511 29.0125 104.527 31.1012 104.666 32.2516H101.698C101.878 30.783 101.878 27.6337 101.878 26.7118C101.878 25.6838 101.804 22.8771 101.706 21.6533H109.818V21.6615Z" fill="#231F20"/>
</g>
<defs>
<clipPath id="clip0_1_1974">
<rect width="172" height="37" fill="white"/>
</clipPath>
</defs>
</svg>
